<svg width="25" height="18" viewBox="0 0 37 29" fill="none" xmlns="http://www.w3.org/2000/svg">
<path d="M2 27.5V26C2 20.201 6.70102 15.5 12.5 15.5C18.299 15.5 23 20.201 23 26V27.5" stroke="#9fa4a6" stroke-width="3" stroke-linecap="round"/>
<path d="M20 18.5C20 14.3579 23.3579 11 27.5 11C31.6421 11 35 14.3579 35 18.5V19.25" stroke="#9fa4a6" stroke-width="3" stroke-linecap="round"/>
<path d="M12.5 15.5C15.8137 15.5 18.5 12.8137 18.5 9.5C18.5 6.18629 15.8137 3.5 12.5 3.5C9.18629 3.5 6.5 6.18629 6.5 9.5C6.5 12.8137 9.18629 15.5 12.5 15.5Z" stroke="#9fa4a6" stroke-width="3" stroke-linecap="round" stroke-linejoin="round"/>
<path d="M27.5 11C29.9854 11 32 8.98527 32 6.5C32 4.01473 29.9854 2 27.5 2C25.0146 2 23 4.01473 23 6.5C23 8.98527 25.0146 11 27.5 11Z" stroke="#9fa4a6" stroke-width="3" stroke-linecap="round" stroke-linejoin="round"/>
</svg>
