<svg width="23" height="22" viewBox="0 0 31 30" fill="none" xmlns="http://www.w3.org/2000/svg">
<path d="M11 27.9841H8C4.68629 27.9841 2 25.2977 2 21.9841V12.5455C2 10.4474 3.09592 8.5017 4.89019 7.41426L12.3902 2.86881C14.3017 1.7104 16.6984 1.7104 18.6098 2.86881L26.1098 7.41426C27.9041 8.5017 29 10.4474 29 12.5455V21.9841C29 25.2977 26.3137 27.9841 23 27.9841H20M11 27.9841V21.9841C11 19.4987 13.0146 17.4841 15.5 17.4841C17.9854 17.4841 20 19.4987 20 21.9841V27.9841M11 27.9841H20" stroke="#9fa4a6" stroke-width="3" stroke-linecap="round" stroke-linejoin="round"/>
</svg>
